<?xml version="1.0" encoding="utf-8"?>
<!-- Generator: Adobe Illustrator 21.0.2, SVG Export Plug-In . SVG Version: 6.00 Build 0)  -->
<svg version="1.1" id="Layer_3" xmlns="http://www.w3.org/2000/svg" xmlns:xlink="http://www.w3.org/1999/xlink" x="0px" y="0px"
	 viewBox="0 0 792 612" style="enable-background:new 0 0 792 612;" xml:space="preserve">
<style type="text/css">
	.st0{fill:url(#SVGID_1_);}
	.st1{fill:#6181B6;}
	.st2{fill:#FFFFFF;}
</style>
<radialGradient id="SVGID_1_" cx="259" cy="221" r="363.0565" gradientTransform="matrix(1 0 0 1 26.5198 -9.3071)" gradientUnits="userSpaceOnUse">
	<stop  offset="0" style="stop-color:#FFFFFF"/>
	<stop  offset="0.5" style="stop-color:#4C6B97"/>
	<stop  offset="1" style="stop-color:#000000"/>
</radialGradient>
<ellipse class="st0" cx="396" cy="306" rx="276.5" ry="145.4"/>
<ellipse class="st1" cx="396" cy="306" rx="265.7" ry="134.6"/>
<g>
	<path class="st2" d="M449.8,349.5c0,0,13.2-67.8,13.2-67.8c3-15.3,0.5-26.7-7.4-33.9c-7.6-7-20.5-10.4-39.5-10.4h-22.8l6.5-33.6
		c0.2-1.3-0.1-2.6-0.9-3.6c-0.8-1-2-1.6-3.3-1.6h-31.5c-2.1,0-3.8,1.5-4.2,3.5l-14,72c-1.3-8.1-4.4-15.1-9.4-20.8
		c-9.2-10.6-23.9-15.9-43.4-15.9H232c-2.1,0-3.8,1.5-4.2,3.5l-28.3,145.8c-0.2,1.3,0.1,2.6,0.9,3.6c0.8,1,2,1.6,3.3,1.6h31.8
		c2.1,0,3.8-1.5,4.2-3.5l6.9-35.3h23.6c12.4,0,22.8-1.3,31-4c8.3-2.7,16-7.3,22.7-13.6c5.5-5,10-10.6,13.4-16.7l-5.7,29.1
		c-0.2,1.3,0.1,2.6,0.9,3.6s2,1.6,3.3,1.6h31.5c2.1,0,3.8-1.5,4.2-3.5l15.5-80h21.6c9.2,0,11.9,1.8,12.6,2.6
		c0.7,0.7,2.1,3.3,0.5,11.2l-12.5,64.5c-0.2,1.3,0.1,2.6,0.9,3.6c0.8,1,2,1.6,3.3,1.6h32C447.6,353,449.4,351.5,449.8,349.5z
		 M303.8,293.5c-2,10.2-5.7,17.4-11.1,21.6c-5.5,4.2-14.2,6.3-26,6.3h-14.1l10.2-52.4H281c13.4,0,18.8,2.9,20.9,5.3
		C304.9,277.6,305.6,284.2,303.8,293.5z"/>
	<path class="st2" d="M584.5,253.3c-9.2-10.6-23.9-15.9-43.4-15.9H480c-2.1,0-3.8,1.5-4.2,3.5l-28.3,145.8c-0.2,1.3,0.1,2.6,0.9,3.6
		s2,1.6,3.3,1.6h31.8c2.1,0,3.8-1.5,4.2-3.5l6.9-35.3h23.6c12.4,0,22.8-1.3,31-4c8.3-2.7,16-7.3,22.7-13.6
		c5.6-5.2,10.3-11,13.8-17.3c3.5-6.3,6-13.3,7.5-20.8C596.7,278.8,593.8,264,584.5,253.3z M551.6,293.5c-2,10.2-5.7,17.4-11.1,21.6
		c-5.5,4.2-14.2,6.3-26,6.3h-14.1l10.2-52.4h18.2c13.4,0,18.8,2.9,20.9,5.3C552.8,277.6,553.4,284.2,551.6,293.5z"/>
</g>
<g>
	<path d="M281,264.7c12.1,0,20.1,2.2,24.1,6.7c4,4.5,5,12.1,2.9,22.9c-2.2,11.3-6.4,19.3-12.7,24.2c-6.3,4.8-15.8,7.2-28.6,7.2
		h-19.3l11.9-61H281z M203.7,387.4h31.8l7.5-38.8h27.2c12,0,21.9-1.3,29.6-3.8c7.8-2.5,14.8-6.7,21.1-12.7
		c5.3-4.9,9.6-10.3,12.9-16.2c3.3-5.9,5.6-12.4,7-19.5c3.4-17.3,0.8-30.7-7.6-40.4c-8.4-9.6-21.8-14.5-40.2-14.5H232L203.7,387.4z"
		/>
	<path d="M364.2,202.9h31.5l-7.5,38.8h28.1c17.7,0,29.8,3.1,36.5,9.2c6.7,6.2,8.7,16.1,6,29.9l-13.2,67.8h-32l12.5-64.5
		c1.4-7.3,0.9-12.3-1.6-15c-2.5-2.7-7.7-4-15.8-4h-25.2l-16.2,83.5h-31.5L364.2,202.9z"/>
	<path d="M528.8,264.7c12.1,0,20.1,2.2,24.1,6.7c4,4.5,5,12.1,2.9,22.9c-2.2,11.3-6.4,19.3-12.7,24.2c-6.3,4.8-15.8,7.2-28.6,7.2
		h-19.3l11.9-61H528.8z M451.5,387.4h31.8l7.5-38.8H518c12,0,21.9-1.3,29.6-3.8c7.8-2.5,14.8-6.7,21.1-12.7
		c5.3-4.9,9.6-10.3,12.9-16.2c3.3-5.9,5.6-12.4,7-19.5c3.4-17.3,0.8-30.7-7.6-40.4c-8.4-9.6-21.8-14.5-40.2-14.5h-61.1L451.5,387.4z
		"/>
</g>
</svg>
